<?xml version="1.0" encoding="UTF-8" standalone="no"?>
<svg
   version="1.0"
   width="999.000000pt"
   height="1080.000000pt"
   viewBox="0 0 999.000000 1080.000000"
   preserveAspectRatio="xMidYMid meet"
   id="svg16"
   sodipodi:docname="anubis.svg"
   inkscape:version="1.1 (c68e22c387, 2021-05-23)"
   xmlns:inkscape="http://www.inkscape.org/namespaces/inkscape"
   xmlns:sodipodi="http://sodipodi.sourceforge.net/DTD/sodipodi-0.dtd"
   xmlns="http://www.w3.org/2000/svg"
   xmlns:svg="http://www.w3.org/2000/svg">
  <defs
     id="defs20" />
  <sodipodi:namedview
     id="namedview18"
     pagecolor="#ffffff"
     bordercolor="#666666"
     borderopacity="1.0"
     inkscape:pageshadow="2"
     inkscape:pageopacity="0.0"
     inkscape:pagecheckerboard="0"
     inkscape:document-units="pt"
     showgrid="false"
     inkscape:zoom="0.36111111"
     inkscape:cx="666"
     inkscape:cy="942.92308"
     inkscape:window-width="1360"
     inkscape:window-height="705"
     inkscape:window-x="1358"
     inkscape:window-y="-8"
     inkscape:window-maximized="1"
     inkscape:current-layer="svg16" />
  <metadata
     id="metadata2">
Created by potrace 1.16, written by Peter Selinger 2001-2019
</metadata>
  <path
     d="m -554.53846,452.76923 v 540 H -55.038462 444.46154 v -540 -539.999999 H -55.038462 -554.53846 Z m 431.5,-385.499999 c 2,14.3 5.6,38.999999 8,54.999999 5,32.5 6.7,46.8 9,76.5 0.9,11.3 2,21.4 2.4,22.5 0.5,1.3 2.5,2.5 5.399998,3.2 13.2,3.6 22.3,10.7 33,26 l 5.8,8.2 -9.6,22.7 c -5.2,12.5 -9.5,23.5 -9.5,24.4 0,0.8 2,4.2 4.5,7.5 8.1,10.7 13.1,22.9 15.2,37.4 0.5,3.4 1.4,5.8 2.5,6.5 2.9,1.8 4.7,-1.2 5.8,-9.5 1.5,-12.3 6.3,-23.4 14.9,-34.9 2.3,-3 4.1,-6.2 4.1,-7 0,-0.9 -4.3,-11.9 -9.5,-24.4 l -9.6,-22.7 5,-7.2 c 8.9,-12.9 14.4,-18.2 23.2,-22.6 4.4,-2.2 9.5,-4.3 11.5,-4.7 1.9000005,-0.3 3.8000005,-1.4 4.3000005,-2.3 0.4,-0.9 1.4,-8.6 2,-17.1 2.1,-26.4 4.99999996,-53.2 7.5,-69.2 1.4,-8.4 5,-32.9 8.0999995,-54.299999 3,-21.5 5.8,-40.1 6.2,-41.5 1.6,-6.9 26.1,93.999999 30.9,127.499999 3.1,21.5 1.6,67.8 -2.5,78.7 -0.8,2.1 -1.1,1.8 -3.6,-3.7 -12.9,-28.8 -19.7,-72.7 -19.4,-124.8 0,-13.9 -0.3,-23.299999 -0.9,-23.899999 -0.5,-0.5 -2,-0.8 -3.3,-0.6 -3.2,0.4 -3.8,4.1 -3.8,26.799999 -0.2,54.9 8,101 23.1,131.3 l 5.1,10.2 1,16.5 c 1.7,31.3 -0.5,67.4 -5.4,86.4 -4.6,18.1 -9.3,25.9 -26,43.2 -9.6999995,10.1 -12.69999954,13.9 -15.4999995,19.8 -4.2,8.9 -6.9000005,21.7 -8.2000005,38.9 -1.1,15 -3.7,21.5 -10.5,27.1 -18.9,15.3 -47.5,15.3 -66.4,0 -6.8,-5.6 -9.4,-12.1 -10.5,-27.1 -1.299998,-17.2 -3.999998,-30 -8.199998,-38.9 -2.8,-5.9 -5.8,-9.7 -15.5,-19.8 -16.7,-17.3 -21.4,-25.1 -26,-43.2 -4.9,-19 -7.1,-55.1 -5.4,-86.4 l 1,-16.5 5.1,-10.2 c 15.2,-30.4 23.3,-76.4 23.1,-131.8 0,-22.899999 -0.5,-25.899999 -4.2,-26.299999 -1.6,-0.2 -2.9,0.2 -3.2,1 -0.2,0.7 -0.6,15.499999 -0.9,32.799999 -0.4,34.5 -1.7,48.7 -6.7,73.8 -3.1,15.7 -7.7,31.2 -12.4,41.7 -2.5,5.5 -2.8,5.8 -3.6,3.7 -4.1,-10.9 -5.6,-57.2 -2.5,-78.7 2.8,-19.7 8.2,-45 17.1,-79.999999 11.9,-46.8 12.8,-50 13.7,-47.8 0.4,1 2.3,13.5 4.3,27.8 z m 85.599998,129.099999 c 8.6,1.6 23.4,6.8 24.5,8.5 0.3,0.5 0.2,3.4 -0.1,6.3 -0.7,5.3 -0.8,5.4 -5.4,7.1 -13.5,5.1 -19.6,9.9 -29.9,23.8 -3.6,4.8 -6.8,8.4 -7.2,8 -0.4,-0.5 -3.6,-4.6 -7.2,-9.3 -10.2,-13.2 -15.6,-17.4 -28.9,-22.5 -4.6,-1.7 -4.7,-1.8 -5.4,-7.1 -0.3,-2.9 -0.4,-5.8 -0.1,-6.3 1,-1.6 14,-6.3 22.6,-8.1 10.7,-2.3 26.2,-2.5 37.1,-0.4 z m -126.999998,46.6 c 0.9,5.1 1.5,9.4 1.4,9.6 -0.1,0.1 -4.4,0.1 -9.5,0 l -9.3,-0.3 7.4,-9.2 c 4.1,-5.1 7.6,-9.2 7.9,-9.3 0.3,0 1.3,4.2 2.1,9.2 z m 227.899998,-1.1 c 9.5,11.8 9.6,10.9 -1.6,10.9 -7.9,0 -9.5,-0.3 -9.1,-1.4 0.3,-0.8 1.1,-5.1 1.8,-9.5 0.7,-4.5 1.5,-8.1 1.8,-8.1 0.3,0.1 3.5,3.7 7.1,8.1 z m -110.2,46.3 7,16.8 -4.1,5.7 c -2.3,3.2 -5.8,9 -7.6,12.9 l -3.5,7.2 -4.7,-9.1 c -2.6,-4.9 -6,-10.7 -7.7,-12.8 l -3,-3.7 6.5,-15.5 c 3.5,-8.5 6.9,-16.5 7.4,-17.8 0.6,-1.4 1.3,-2 1.8,-1.5 0.5,0.5 4,8.5 7.9,17.8 z m 148.700002,10.9 c 2.8,5.1 5.1,9.8 5.3,10.4 0.3,1 -5.7,1.3 -27.200002,1.3 h -27.6 v -10.8 -10.7 l 22.3,0.3 22.3,0.3 z m -264.5,1.2 v 10.5 h -27.6 c -21.5,0 -27.5,-0.3 -27.2,-1.3 0.2,-0.6 2.5,-5.4 5.3,-10.5 l 5,-9.2 h 22.2 22.3 z m 4.4,56.4 c 0.9,5 1.9,9.7 2.2,10.5 0.6,1.4 -3.9,1.6 -43,1.6 -34.2,0 -43.6,-0.3 -43.6,-1.3 0,-0.6 1.6,-5.4 3.6,-10.5 l 3.6,-9.2 h 37.8 37.7 z m 287,0.1 c 2,5 3.6,9.7 3.6,10.5 0,1.3 -5.6,1.5 -43.600002,1.5 -39.1,0 -43.6,-0.2 -43,-1.6 0.3,-0.8 1.3,-5.5 2.2,-10.5 l 1.7,-8.9 h 37.7 37.800002 z m -270.9,58.7 c -0.4,5.4 -0.9,10.1 -1.2,10.5 -0.5,0.9 -118.3,1.1 -118.3,0.2 0,-0.3 1.4,-5 3.1,-10.5 l 3.1,-9.9 h 57 57 z m 290.4,0.2 c 1.7,5.4 3.1,10.1 3.1,10.5 0,0.9 -117.800002,0.7 -118.300002,-0.2 -0.3,-0.4 -0.8,-5.1 -1.2,-10.5 l -0.7,-9.7 h 56.9 57.000002 z m -262.7,14.1 c 3.8,8 5.7,15.9 6.8,29.5 2.2,24.4 3.8,29.4 12.499998,38.1 8.6,8.6 26.2,15.4 40,15.4 13.8,0 31.4,-6.8 40,-15.4 8.7000005,-8.7 10.3000005,-13.7 12.5000005,-38.1 1.89999996,-22 5.4,-30.8 17.3999995,-43.3 l 8.1,-8.4 0.7,4.8 c 1.4,9.9 3.8,47.8 4.9,76.9 l 1.1,30 -4.4,3.8 c -5.8,5.1 -24.29999954,14.1 -35.3,17.2 -15.2,4.3 -26.5,5.8 -45,5.8 -18.5,0 -29.8,-1.5 -44.999998,-5.8 -11,-3.1 -29.5,-12.1 -35.3,-17.2 l -4.4,-3.8 1.2,-30.5 c 1,-28.1 3,-60.9 4.6,-75.4 l 0.7,-6 8.1,8.5 c 4.8,5 9.2,10.7 10.8,13.9 z m -31.2,37.7 c 0,2.1 -0.3,6.8 -0.7,10.5 l -0.6,6.8 h -65.9 c -62.3,0 -65.9,-0.1 -65.4,-1.8 0.2,-0.9 1.4,-5.3 2.6,-9.7 1.2,-4.4 2.4,-8.3 2.7,-8.8 0.2,-0.4 29,-0.7 63.9,-0.7 h 63.4 z m 311.1,6.3 c 1.5,5.2 2.5,9.8 2.2,10.2 -0.2,0.5 -29.8,0.8 -65.7,0.8 H 36.761538 l -0.6,-6.8 c -0.4,-3.7 -0.7,-8.4 -0.7,-10.5 v -3.7 l 63.7,0.2 63.800002,0.3 z m -313.1,58.5 v 10.5 l -62.2,-0.2 -62.2,-0.3 -3.2,-9 c -1.8,-5 -3.3,-9.6 -3.3,-10.3 -0.1,-0.9 13.6,-1.2 65.4,-1.2 h 65.5 z m 315.9,-9.3 c 0,0.7 -1.5,5.3 -3.3,10.3 l -3.2,9 -62.200002,0.3 -62.2,0.2 v -10.5 -10.5 h 65.500002 c 51.8,0 65.5,0.3 65.4,1.2 z m -446.6,24.8 c 4.8,13.2 8.7,24.3 8.7,24.8 0,1.8 -34.5,11.5 -59,16.6 l -16.3,3.4 -12.6,-9.8 c -6.9,-5.4 -17.2,-12.7 -22.8,-16.2 -5.7,-3.5 -10.3,-6.5 -10.3,-6.8 0,-0.3 5,-1.3 11.1,-2.3 27.3,-4.4 61.6,-16.3 83.1,-28.8 4.6,-2.6 8.6,-4.8 8.9,-4.8 0.3,-0.1 4.4,10.7 9.2,23.9 z m 464.6,-19 c 23.1,13 55.5,24.2 83.3,28.7 6,1 10.8,2 10.8,2.3 0,0.3 -3.6,2.7 -7.9,5.3 -8.5,5.1 -20.5,13.7 -31.1,22.3 l -6.6,5.3 -16.3,-3.4 c -24.6,-5.2 -59.1,-14.9 -59.1,-16.7 0,-1.1 17.3,-48.8 17.7,-48.8 0.2,0 4.3,2.3 9.2,5 z m -321.2,24.6 c 36.099998,24.7 101.899998,28.3 145.099998,7.9 5.1,-2.4 11.3,-5.8 13.9,-7.5 2.5,-1.7 4.8,-2.8 5.1,-2.5 0.3,0.3 0.1,17.7 -0.5,38.7 l -1,38.2 -3.9,3.3 c -5.7,5 -26.5999995,14.9 -37.6,17.8 -26.8,7.1 -56.6,7.1 -82.8,-0.1 -11.199998,-3.1 -31.899998,-12.8 -37.299998,-17.6 l -3.8,-3.3 -0.9,-25.5 c -1,-28.1 -1.3,-52 -0.5,-52 0.2,0 2.1,1.2 4.2,2.6 z m -11.7,36.9 v 10.5 l -51.6,-0.2 -51.6,-0.3 -3.4,-8.4 c -1.8,-4.6 -3.6,-9.2 -3.9,-10.2 -0.6,-1.8 1,-1.9 54.9,-1.9 h 55.6 z m 293.5,-8.6 c -0.3,1 -2.1,5.6 -3.9,10.2 l -3.4,8.4 -51.600002,0.3 -51.6,0.2 v -9.8 c 0,-5.4 0.3,-10.2 0.7,-10.5 0.3,-0.4 25.3,-0.7 55.5,-0.7 53.300002,0 54.900002,0.1 54.300002,1.9 z m -409,8.8 c 2.1,5.4 6.7,16.7 10.3,25.1 3.6,8.6 6.1,15.7 5.6,16.2 -2.5,2.2 -41.2,14.6 -43.3,13.8 -1.2,-0.4 -47.3,-45.9 -46.9,-46.2 0.2,-0.2 7.7,-2 16.8,-4 15.4,-3.5 43.3,-11.2 49,-13.5 1.4,-0.5 3,-1 3.6,-1 0.6,-0.1 2.8,4.3 4.9,9.6 z m 431.8,-5.6 c 12.3,3.8 44.3,11.9 53,13.5 2.1,0.3 3.7,0.9 3.5,1.3 -0.2,0.3 -10.7,10.9 -23.5,23.5 l -23.2,22.8 -5.3,-1.2 c -5.9,-1.4 -29.5,-9.1 -35.2,-11.5 -2,-0.8 -3.6,-1.9 -3.6,-2.3 0,-0.5 2.4,-6.4 5.3,-13.3 3,-6.8 7.6,-17.9 10.2,-24.7 2.7,-6.7 5,-12.2 5.2,-12.2 0.2,0 6.3,1.8 13.6,4.1 z m -314.9,53.7 c 0.2,0.4 0.6,5.1 0.7,10.3 l 0.2,9.4 -39.6,0.3 -39.6,0.2 -1.6,-3 c -0.8,-1.6 -3.1,-6.4 -5,-10.5 l -3.4,-7.5 h 43.9 c 24.1,0 44.1,0.4 44.4,0.8 z m 265.1,6.7 c -1.9,4.1 -4.2,8.9 -5,10.5 l -1.6,3 -39.600002,-0.2 -39.6,-0.3 0.2,-9.4 c 0.1,-5.2 0.5,-9.9 0.7,-10.3 0.3,-0.4 20.3,-0.8 44.4,-0.8 h 43.900002 z m -351.2,15 c 13.7,27.6 19,36.5 37.3,63.7 8.4,12.6 15,22.8 14.6,22.8 -2.1,0 -27.8,-20.7 -41.7,-33.6 -23.4,-21.6 -61.6,-59.7 -60.7,-60.5 0.4,-0.3 5.6,-2.1 11.6,-3.9 6.1,-1.8 14.6,-4.8 19,-6.5 4.5,-1.8 8.4,-3.2 8.8,-3.1 0.3,0 5.3,9.5 11.1,21.1 z m 375.2,-17 c 5,1.9 13.1,4.6 18,6.1 5,1.5 9.3,3 9.7,3.3 0.9,0.8 -37.4,39 -60.7,60.5 -14.000002,13 -39.600002,33.6 -41.800002,33.6 -0.4,0 6.2,-10.2 14.7,-22.8 18.900002,-28 23.600002,-36 37.200002,-63.5 8.4,-17 11.2,-21.6 12.4,-21.1 0.8,0.3 5.6,2.1 10.5,3.9 z m -271.9,1.4 c 4.7,2.7 11.9,6.2 16,7.7 l 7.4,2.7 v 61.8 c 0,57.6 -0.1,61.9 -1.7,61.9 -2.2,0 -18.6,-5 -19.6,-5.9 -1.5,-1.5 -7.5,-67.7 -9.7,-106.1 -0.6,-10.7 -1.2,-21.2 -1.3,-23.3 -0.1,-2 -0.1,-3.7 0,-3.7 0.2,0 4.1,2.2 8.9,4.9 z m 154.699998,-1.2 c -0.1,2.1 -0.7,12.6 -1.3,23.3 -2.2,38.4 -8.2,104.6 -9.7,106.1 -1,0.9 -17.3999995,5.9 -19.5999995,5.9 -1.6,0 -1.7,-4.3 -1.7,-61.8 v -61.9 l 8.3,-3.1 c 4.5,-1.7 11.5999995,-5.2 15.6999995,-7.6 4.1,-2.5 7.7,-4.5 8,-4.5 0.3,-0.1 0.4,1.6 0.3,3.6 z m -109.3,17 c 17.5,3.2 49.1,2.1 66.7,-2.4 l 2.3,-0.5 v 62 61.9 l -5.7,1.1 c -22.3,4.3 -49.3,4.3 -71.5,0 l -5.8,-1.1 v -61.9 -62 l 2.3,0.5 c 1.2,0.4 6.5,1.4 11.7,2.4 z m -58.499998,43 c 0.3,4.3 0.7,8.9 0.8,10.3 l 0.2,2.5 -24.7,0.3 -24.7,0.2 -6.1,-9 c -3.3,-5 -6.3,-9.7 -6.6,-10.5 -0.5,-1.3 3.4,-1.5 29.9,-1.5 h 30.5 z m 233.099998,-6.2 c -0.3,0.8 -3.3,5.5 -6.6,10.5 l -6.1,9 -24.7,-0.2 -24.7,-0.3 0.3,-4.5 c 0.1,-2.5 0.5,-7.1 0.8,-10.3 l 0.6,-5.7 h 30.5 c 26.5,0 30.4,0.2 29.9,1.5 z m -228.599998,57.2 c 0,0.5 0.9,8.4 2,17.8 1.1,9.3 2,18.1 2,19.5 l -0.1,2.5 -2.5,-3 c -1.4,-1.7 -8,-10.2 -14.6,-19 -6.7,-8.8 -12.6,-16.6 -13.1,-17.3 -0.7,-0.9 1.9,-1.2 12.7,-1.2 7.5,0 13.6,0.3 13.6,0.7 z m 189.299998,0.5 c -0.5,0.7 -7.2,9.5 -14.7,19.6 -7.6,10 -14.2,18.5 -14.7,18.8 -1.3,0.7 -1.1,-1.9 1.1,-21.1 1.1,-9.4 2,-17.3 2,-17.8 0,-0.4 6.1,-0.7 13.6,-0.7 10.8,0 13.4,0.3 12.7,1.2 z m -467.299998,187.3 c 1.9,1 2.7,2 2.4,3 -0.7,1.8 -0.4,1.8 -4.3,-0.1 -4.3,-2.1 -8.3,-1.2 -7.9,1.9 0.2,1.6 1.6,2.6 5.3,4 8.7,3.1 10.7,7.7 5.6,12.8 -2.4,2.3 -3.8,2.9 -7.3,2.9 -6.2,0 -9,-1 -8.5,-2.9 0.2,-0.9 0.8,-1.5 1.4,-1.4 7.3,1.5 9,1.4 11.3,-0.5 3.3,-2.7 1.9,-5 -4.2,-7.1 -6,-2.1 -7.8,-3.7 -7.8,-7.2 0,-6.1 7.3,-8.9 14,-5.4 z m 58,4.6 v 6.1 l 3.5,-3.1 c 3,-2.6 7.5,-4.2 7.5,-2.6 0,0.3 -1.7,2 -3.7,3.9 l -3.7,3.4 4.2,6.1 c 4.3,6 4.3,6.1 1.9,6.1 -1.9,0 -3.2,-1.1 -5.4,-4.5 -1.5,-2.5 -3.1,-4.5 -3.5,-4.5 -0.5,0 -0.8,2 -0.8,4.5 0,3.8 -0.3,4.5 -2,4.5 -1.9,0 -2,-0.7 -2,-13 0,-12.3 0.1,-13 2,-13 1.8,0 2,0.7 2,6.1 z m -135.3,2.1 c 1.2,1.3 2.4,3.8 2.8,5.5 l 0.7,3.3 h -7.1 c -7.8,0 -9,1.1 -5,5.1 1.7,1.7 3,2 6.5,1.6 2.4,-0.2 4.4,-0.1 4.4,0.3 0,1.2 -2.8,2 -6.6,2 -5.2,0 -8.4,-3.9 -8.4,-10 0,-8.5 7.7,-13.2 12.7,-7.8 z m 46.4,0.7 c 2.2,2.3 2.9,3.9 2.9,6.9 0,9.3 -9.8,13.8 -15.4,7.1 -8.1,-9.6 3.7,-22.8 12.5,-14 z m 61.6,-1.4 c 3.2,2.3 4.7,7.7 3.3,12 -1.4,4.2 -4.4,6.5 -8.5,6.5 -6.5,0 -10.7,-6.7 -8.5,-13.5 1.4,-4.2 4.4,-6.5 8.5,-6.5 1.7,0 4,0.7 5.2,1.5 z"
     id="path4"
     style="fill:#000000;stroke:none;stroke-width:0.1" />
  <path
     d="m 413.6,407.6 c -0.9,0.8 -1.6,2 -1.6,2.5 0,1.1 2.5,3.6 6.2,6.4 1.9,1.4 2.9,3.3 3.4,6.2 l 0.6,4.2 -3.7,0.3 c -4.5,0.4 -6.6,2.8 -4.9,5.5 0.8,1.3 2.7,1.9 6.7,2.1 5.2,0.3 5.8,0.6 7.7,3.7 3,4.8 11.2,12 18.5,16 12.3,6.9 13.5,9.1 16.4,29.1 3.3,23.1 4.4,41.3 3.7,61.9 -0.7,21.9 0.1,26.8 5.6,32.4 6.2,6.4 10.4,7.6 27.3,7.6 16.9,0 21.1,-1.2 27.3,-7.6 5.5,-5.6 6.3,-10.5 5.6,-32.4 -0.7,-20.6 0.4,-38.8 3.7,-62 3,-20.5 3.2,-20.9 18.9,-30.6 6.8,-4.2 13.3,-10.1 16,-14.5 1.9,-3 2.6,-3.3 7.7,-3.6 4,-0.2 5.9,-0.8 6.7,-2.1 1.7,-2.6 -0.4,-5.1 -4.8,-5.5 -3.8,-0.3 -4,-0.8 -3,-6 0.4,-2.1 1.9,-4 4.4,-5.7 4.1,-2.9 5.3,-4.7 4.4,-7 -1,-2.4 -4.2,-2.8 -7.2,-0.7 -1.5,1 -7,4.1 -12.2,6.7 -12.1,6.2 -23.1,16.6 -27.8,26.5 -8.1,16.7 -13.3,47.1 -14.9,85.6 l -0.6,16 -6.1,-2.5 c -5.4,-2.3 -7.5,-2.6 -18.1,-2.6 -10.6,0 -12.7,0.3 -18.1,2.6 l -6.1,2.5 -0.7,-16.4 c -1.6,-38.8 -6.7,-68.5 -14.8,-85.2 -4.7,-9.9 -15.7,-20.3 -27.8,-26.5 -5.2,-2.6 -10.6,-5.6 -11.9,-6.7 -2.9,-2.2 -4.5,-2.3 -6.5,-0.2 z m 22.5,18.2 c 5.6,3.6 13.4,12.2 16.5,18.4 1.3,2.6 2.4,5 2.4,5.3 0,0.4 -2.3,-0.6 -5.2,-2.2 -7.7,-4.2 -14.4,-10.7 -17.2,-16.8 -4.1,-8.5 -3.6,-9.1 3.5,-4.7 z M 569,424.1 c 0,3.1 -5.7,12.3 -9.9,16.1 -4.5,4.1 -15.1,10.6 -15.1,9.3 0,-0.3 1.1,-2.7 2.4,-5.3 3.1,-6.2 10.9,-14.8 16.5,-18.4 4.8,-3 6.1,-3.4 6.1,-1.7 z m -54.9,122.8 c 2,0.6 5.2,2.1 7,3.4 3.2,2.1 3.4,2.6 3.7,8.7 0.3,7.8 -1.7,12.4 -6.8,15.8 -3.1,2.1 -3.5,2.1 -3.8,0.7 -0.5,-2.3 1.7,-7.2 3.4,-7.9 1.8,-0.7 1.8,-4 -0.1,-5.6 -4,-3.3 -10,2.8 -11.1,11.4 l -0.7,4.6 h -6.2 -6.2 l -0.7,-4.6 c -1.1,-8.6 -7.1,-14.7 -11.1,-11.4 -1.9,1.6 -1.9,4.9 -0.1,5.6 1.7,0.7 3.9,5.6 3.4,7.9 -0.3,1.4 -0.7,1.4 -3.8,-0.7 -4.8,-3.2 -7,-8 -7,-15.4 0,-7.7 2.2,-9.9 13,-13 5.2,-1.5 21.6,-1.2 27.1,0.5 z"
     id="path6"
     style="fill:#000000;stroke:none;stroke-width:0.1" />
  <path
     d="m 491.6,296.4 c -3.1,3.5 -5.6,7.1 -5.6,8.2 0,2.2 9.6,17.1 11.9,18.3 0.9,0.5 2.2,0.6 3.2,0.1 2.2,-1.2 11.9,-16.2 11.9,-18.4 0,-3 -10.8,-14.6 -13.5,-14.6 -1.6,0 -4.1,2 -7.9,6.4 z"
     id="path8"
     style="fill:#000000;stroke:none;stroke-width:0.1" />
  <path
     d="m 486.1,793.5 c -6.2,9.7 -11.5,18.3 -11.8,19.1 -0.7,2 21.6,39.2 24.1,40 1.1,0.4 2.5,-0.1 3.6,-1.2 3.4,-3.5 23.1,-36.9 22.7,-38.5 -0.2,-0.8 -5.5,-9.5 -11.7,-19.2 -9.2,-14.5 -11.6,-17.7 -13.5,-17.7 -1.9,0 -4.3,3.2 -13.4,17.5 z m 22.3,7.6 c 4.2,6.6 7.6,12.3 7.6,12.6 0,0.7 -16.1,27.3 -16.5,27.3 -0.4,0 -16.5,-26.6 -16.5,-27.3 0,-0.6 10.9,-18.2 14.2,-23 1.1,-1.5 2.3,-2.5 2.8,-2.2 0.5,0.3 4.2,5.9 8.4,12.6 z"
     id="path10"
     style="fill:#000000;stroke:none;stroke-width:0.1" />
  <path
     d="m 98.1,1038.6 c -1.2,1.5 -2.1,3.9 -2.1,5.4 0,4 3.5,8 7,8 3.5,0 7,-4 7,-8 0,-4 -3.5,-8 -7,-8 -1.9,0 -3.6,0.9 -4.9,2.6 z"
     id="path12"
     style="fill:#000000;stroke:none;stroke-width:0.1" />
</svg>
